<?xml version="1.0" encoding="utf-8"?>
<!-- Generator: Adobe Illustrator 19.0.0, SVG Export Plug-In . SVG Version: 6.00 Build 0)  -->
<svg version="1.1" id="Layer_1" xmlns="http://www.w3.org/2000/svg" xmlns:xlink="http://www.w3.org/1999/xlink" x="0px" y="0px"
	 viewBox="-449 376 1000 150.6" style="enable-background:new -449 376 1000 150.6;" xml:space="preserve">
<style type="text/css">
	.st0{fill:#FFFFFF;}
</style>
<g id="XMLID_29_">
	<path id="XMLID_30_" class="st0" d="M-339.5,385.4h-105.6v-10.8h70.8C-361,374.5-349.6,378.2-339.5,385.4z M-321.9,406.4h-123.2
		v-10.8h116C-326.4,398.7-324,402.4-321.9,406.4z M-323,495.9c-1.8,3.3-4.3,7-7.2,10.8h-115v-10.8H-323z M-340.8,517.1
		c-9.4,7.2-20.3,10.6-32.3,10.6h-72v-10.6H-340.8z M-385,426.5h-39.5v-10h39.5V426.5z M-385,446.1h-39.5v-10h39.5V446.1z M-385,466
		h-39.5v-9.8h39.5V466z M-385,485.4h-39.5v-10h39.5V485.4z M-314.6,426.5H-362v-10h44.8C-316,420.6-315.2,423.8-314.6,426.5z
		 M-311.9,446.1H-362v-10h49.3C-312.5,438.2-312.3,441.4-311.9,446.1z M-312.1,456.2c-0.2,2.3-0.4,5.5-1,9.8H-362v-9.8H-312.1z
		 M-315.2,475.4c-0.8,3.3-2,6.8-3.3,10H-362v-10H-315.2z"/>
	<path id="XMLID_43_" class="st0" d="M-249.1,445.1h-61c0.2-2.5,0.4-5.7,1-9.6h59.9V445.1z M-249.1,463.7h-59.9
		c-0.6-4.3-0.8-7.6-0.8-10h61v10H-249.1z M-249.1,485.4h-54c-1.6-3.5-3.1-7.6-4.1-12.1h58.1V485.4z M-249.1,425.7h-57.7
		c0.8-3.5,2-6.5,3.3-9.4h54.4C-249.1,416.3-249.1,425.7-249.1,425.7z M-179.6,406.4h-118.7c2.7-4.5,5.3-8.2,8.2-10.8h101.9
		C-185.3,398.5-182.4,402.2-179.6,406.4z M-177.3,495.9c-2.3,3.7-4.9,7.4-8,10.8h-103.9c-3.7-4.1-6.3-7.6-8.2-10.8H-177.3z
		 M-200.6,385.4h-77.5c11.3-7.2,24.1-10.8,38.7-10.8C-225.2,374.5-212.3,378.2-200.6,385.4z M-197.8,517.1
		c-11,7.2-23.9,10.6-39.1,10.6s-28.4-3.5-39.5-10.6H-197.8z M-170.3,425.7h-55.9v-9.4h52.2C-172.8,419.7-171.6,422.8-170.3,425.7z
		 M-166.7,445.1h-59.5v-9.6h58.1C-167.5,438.6-167.1,441.8-166.7,445.1z M-166.3,453.7c0,2.3-0.2,5.7-0.4,10h-59.5v-10H-166.3z
		 M-168.5,473.3c-0.8,3.9-2,8-3.7,12.1h-54v-12.1H-168.5z"/>
	<path id="XMLID_56_" class="st0" d="M-115.5,385.4H-174v-10.8h58.5V385.4z M-108.8,406.4H-174v-10.8h59.7L-108.8,406.4z
		 M-108.8,495.9l-5.1,10.8H-174v-10.8H-108.8z M-114.7,527.8h-59.5v-10.6h59.5V527.8z M-55.4,485.4H-103l-0.4-0.8l-0.4,0.8h-47.7
		l7.2-12.1h81.8L-55.4,485.4z M-57.2,416.5l-6.1,9.4H-144l-6.1-9.4H-57.2z M-68.5,463.7h-70.2l6.1-10h57.9L-68.5,463.7z
		 M-69.5,435.5l-6.3,9.6h-55.2l-6.3-9.6H-69.5z M-32.9,406.4h-65.3l5.7-10.8h59.5V406.4z M-32.9,506.7H-93l-5.1-10.8h65.3V506.7z
		 M-32.9,527.8h-59.5v-10.6h59.5V527.8z M-32.9,385.4h-58.5v-10.8h58.5V385.4z"/>
	<path id="XMLID_69_" class="st0" d="M79.9,425.7h-44c-0.2-1.6-0.4-3.3-0.4-4.7v-1.2c0-0.8,0-2,0.2-3.3h44.2V425.7z M73.3,485.4
		H36.1v-12.1h37.2V485.4z M145.7,495.9c-0.8,3.3-2,7-4.1,10.8H35.9v-10.8H145.7z M134.3,517.1c-6.8,7.2-15.3,10.6-25.4,10.6H36.1
		v-10.6H134.3z M142.5,406.4H36.7c0.8-4.1,2.3-7.6,3.9-10.8h101.9V406.4z M134.9,445.1H41.2c-1.6-3.3-2.9-6.5-3.7-9.6h80
		c2.3,0,5.3,1.2,9.4,3.5C130.2,441,132.8,443.1,134.9,445.1z M145.5,463.7H63.1c-2,0-4.9-1.2-8.6-3.7c-3.3-2.3-5.7-4.3-7.4-6.3h94.3
		C142.9,456.4,144.3,459.6,145.5,463.7z M142.5,385.4H47.3c6.5-7.2,14.9-10.8,25.4-10.8h69.8V385.4z M148,481.1c0,1.2,0,2.7-0.2,4.3
		h-44.4v-12.1h44.2c0.2,2.3,0.4,4.5,0.4,6.3V481.1z M142.5,425.7h-32.7v-9.4h32.7V425.7z"/>
	<path id="XMLID_80_" class="st0" d="M290.4,385.4H145.7v-10.8h144.6V385.4z M290.4,406.4H145.7v-10.8h144.6V406.4z M181.7,425.7
		h-36v-9.4h36V425.7z M259.7,506.7h-83.3v-10.8h83.3V506.7z M259.7,527.8h-83.3v-10.6h83.3V527.8z M238.8,425.7h-41.7v-9.4h41.7
		V425.7z M238.8,445.1h-41.7v-9.6h41.7V445.1z M238.8,463.7h-41.7v-10h41.7V463.7z M238.8,485.4h-41.7v-12.1h41.7V485.4z
		 M290.4,425.7h-36v-9.4h36V425.7z"/>
	<path id="XMLID_91_" class="st0" d="M347.9,445.1h-61c0.2-2.5,0.4-5.7,1-9.6h59.9V445.1z M347.9,463.7h-60.1
		c-0.6-4.3-0.8-7.6-0.8-10h61V463.7z M347.9,485.4h-54c-1.6-3.5-2.9-7.6-4.1-12.1h58.1V485.4z M347.9,425.7h-57.7
		c0.8-3.5,2-6.5,3.3-9.4h54.4V425.7z M417.2,406.4H298.6c2.7-4.5,5.3-8.2,8.2-10.8h101.9C411.5,398.5,414.4,402.2,417.2,406.4z
		 M419.5,495.9c-2.3,3.7-4.9,7.4-8,10.8H307.8c-3.7-4.1-6.3-7.6-8.2-10.8H419.5z M396.1,385.4h-77.5c11-7.2,23.9-10.8,38.7-10.8
		C371.8,374.5,384.7,378.2,396.1,385.4z M399,517.1c-11,7.2-23.9,10.6-39.1,10.6s-28.4-3.5-39.5-10.6H399z M426.4,425.7h-55.9v-9.4
		h52.2C424,419.7,425.2,422.8,426.4,425.7z M430.1,445.1h-59.5v-9.6h58.1C429.3,438.6,429.9,441.8,430.1,445.1z M430.5,453.7
		c0,2.3-0.2,5.7-0.4,10h-59.5v-10H430.5z M428.3,473.3c-0.8,3.9-2,8-3.7,12.1h-54v-12.1H428.3z"/>
	<path id="XMLID_104_" class="st0" d="M541,385.4H424v-10.8h87.4C523.4,374.5,533.4,378.2,541,385.4z M553.1,406.4H424v-10.8h124.8
		C550.6,398.3,552,401.9,553.1,406.4z M507.4,506.7h-83.3v-10.8h83.3V506.7z M507.4,527.8h-83.3v-10.6h83.3V527.8z M487,425.7h-41.7
		v-9.4H487V425.7z M552.2,435.5c-1.2,3.7-2.5,7-4.1,9.6H445.2v-9.6H552.2z M541.4,453.7c-7,6.8-13.5,10-19.8,10h-76.3v-10H541.4z
		 M487,485.4h-41.7v-12.1H487V485.4z M554.9,419.7c0,1.2-0.2,3.3-0.4,6.1h-43.8v-9.4h44l0.2,2.3V419.7z"/>
</g>
</svg>
