
<svg
   iconCreditTo="https://www.flaticon.com/authors/icomoon"
   x="0px"
   y="0px"
   width="448"
   height="432"
   viewBox="0 0 448 432"
   xml:space="preserve">
<g>
	<path
   d="m 279.412,311.368 c -11.055,-1.759 -11.307,-32.157 -11.307,-32.157 0,0 32.484,-32.158 39.564,-75.401 19.045,0 30.809,-45.973 11.76,-62.148 C 320.227,124.635 343.91,8 224,8 104.089,8 127.775,124.635 128.568,141.662 c -19.047,16.175 -7.285,62.148 11.761,62.148 7.079,43.243 39.564,75.401 39.564,75.401 0,0 -0.252,30.398 -11.307,32.157 C 132.976,317.034 0,375.686 0,440 H 224 448 C 448,375.686 315.023,317.034 279.412,311.368 Z"
   id="path2"
   inkscape:connector-curvature="0" />
</g>
</svg>